<?xml version="1.0" encoding="utf-8"?>
<!-- Generator: Adobe Illustrator 15.0.2, SVG Export Plug-In . SVG Version: 6.00 Build 0)  -->
<!DOCTYPE svg PUBLIC "-//W3C//DTD SVG 1.1//EN" "http://www.w3.org/Graphics/SVG/1.1/DTD/svg11.dtd">
<svg version="1.1" id="Layer_1" xmlns="http://www.w3.org/2000/svg" xmlns:xlink="http://www.w3.org/1999/xlink" x="0px" y="0px"
	 width="504px" height="504px" viewBox="0 0 504 504" enable-background="new 0 0 504 504" xml:space="preserve">
<g>
	<path fill="none" d="M503.873,42.498c-3.566,0-6.459-2.893-6.459-6.46s2.893-6.46,6.459-6.46c0.043,0,0.084,0.005,0.127,0.006
		V6.491c-0.043,0.001-0.084,0.006-0.127,0.006c-3.566,0-6.459-2.893-6.459-6.459c0-0.013,0.002-0.025,0.002-0.038h-23.073
		c0,0.013,0.002,0.025,0.002,0.038c0,3.567-2.892,6.459-6.459,6.459c-3.566,0-6.459-2.893-6.459-6.459
		c0-0.013,0.002-0.025,0.002-0.038h-23.073c0,0.013,0.002,0.025,0.002,0.038c0,3.567-2.894,6.459-6.46,6.459
		c-3.567,0-6.458-2.893-6.458-6.459c0-0.013,0.002-0.025,0.002-0.038h-23.074c0,0.013,0.002,0.025,0.002,0.038
		c0,3.567-2.893,6.459-6.46,6.459c-3.568,0-6.459-2.893-6.459-6.459c0-0.013,0.002-0.025,0.002-0.038H366.38
		c0,0.013,0.002,0.025,0.002,0.038c0,3.567-2.893,6.459-6.46,6.459s-6.459-2.893-6.459-6.459c0-0.013,0.002-0.025,0.002-0.038
		h-23.072c0,0.013,0.002,0.025,0.002,0.038c0,3.567-2.895,6.459-6.46,6.459c-3.568,0-6.458-2.893-6.458-6.459
		c0-0.013,0.002-0.025,0.002-0.038h-23.075c0,0.013,0.002,0.025,0.002,0.038c0,3.567-2.891,6.459-6.458,6.459
		c-3.569,0-6.462-2.893-6.462-6.459c0-0.013,0.002-0.025,0.002-0.038h-23.071c0,0.013,0.002,0.025,0.002,0.038
		c0,3.567-2.892,6.459-6.459,6.459s-6.459-2.893-6.459-6.459c0-0.013,0.002-0.025,0.002-0.038h-23.073
		c0,0.013,0.002,0.025,0.002,0.038c0,3.567-2.893,6.459-6.459,6.459c-3.567,0-6.459-2.893-6.459-6.459
		c0-0.013,0.002-0.025,0.002-0.038H186.44c0,0.013,0.002,0.025,0.002,0.038c0,3.567-2.893,6.459-6.459,6.459
		c-3.567,0-6.459-2.893-6.459-6.459c0-0.013,0.002-0.025,0.002-0.038h-23.073c0,0.013,0.002,0.025,0.002,0.038
		c0,3.567-2.892,6.459-6.459,6.459c-3.567,0-6.46-2.893-6.46-6.459c0-0.013,0.002-0.025,0.002-0.038h-23.072
		c0,0.013,0.002,0.025,0.002,0.038c0,3.567-2.892,6.459-6.459,6.459c-3.567,0-6.459-2.893-6.459-6.459
		c0-0.013,0.002-0.025,0.002-0.038H78.477c0,0.013,0.002,0.025,0.002,0.038c0,3.567-2.893,6.459-6.46,6.459
		c-3.567,0-6.459-2.893-6.459-6.459c0-0.013,0.002-0.025,0.002-0.038H42.489c0,0.013,0.002,0.025,0.002,0.038
		c0,3.567-2.893,6.459-6.461,6.459c-3.566,0-6.458-2.893-6.458-6.459c0-0.013,0.002-0.025,0.002-0.038H6.499
		c0,0.013,0.002,0.025,0.002,0.038c0,3.567-2.891,6.459-6.458,6.459C0.028,6.498,0.015,6.496,0,6.495V29.58
		c0.015,0,0.028-0.002,0.043-0.002c3.567,0,6.458,2.893,6.458,6.46s-2.891,6.46-6.458,6.46c-0.015,0-0.028-0.002-0.043-0.002v23.085
		c0.015,0,0.028-0.002,0.043-0.002c3.567,0,6.458,2.893,6.458,6.46s-2.891,6.459-6.458,6.459c-0.015,0-0.028-0.002-0.043-0.002
		v23.085c0.015,0,0.028-0.002,0.043-0.002c3.567,0,6.458,2.893,6.458,6.46s-2.891,6.46-6.458,6.46c-0.015,0-0.028-0.002-0.043-0.002
		v23.085c0.015,0,0.028-0.002,0.043-0.002c3.567,0,6.458,2.893,6.458,6.46s-2.891,6.459-6.458,6.459
		c-0.015,0-0.028-0.002-0.043-0.002v23.085c0.015,0,0.028-0.002,0.043-0.002c3.567,0,6.458,2.893,6.458,6.46s-2.891,6.46-6.458,6.46
		c-0.015,0-0.028-0.002-0.043-0.002v23.084c0.015,0,0.028-0.002,0.043-0.002c3.567,0,6.458,2.893,6.458,6.46
		s-2.891,6.459-6.458,6.459c-0.015,0-0.028-0.002-0.043-0.002v23.086c0.015,0,0.028-0.002,0.043-0.002
		c3.567,0,6.458,2.893,6.458,6.46c0,3.567-2.891,6.459-6.458,6.459c-0.015,0-0.028-0.002-0.043-0.002v23.084
		c0.015,0,0.028-0.002,0.043-0.002c3.567,0,6.458,2.894,6.458,6.461c0,3.566-2.891,6.459-6.458,6.459
		c-0.015,0-0.028-0.002-0.043-0.002v23.085c0.015,0,0.028-0.002,0.043-0.002c3.567,0,6.458,2.893,6.458,6.459
		c0,3.567-2.891,6.46-6.458,6.46c-0.015,0-0.028-0.002-0.043-0.002v23.084c0.015,0,0.028-0.002,0.043-0.002
		c3.567,0,6.458,2.894,6.458,6.461c0,3.566-2.891,6.459-6.458,6.459c-0.015,0-0.028-0.002-0.043-0.002v23.086
		c0.015,0,0.028-0.002,0.043-0.002c3.567,0,6.458,2.893,6.458,6.459c0,3.567-2.891,6.46-6.458,6.46
		c-0.015,0-0.028-0.002-0.043-0.002v23.084c0.015,0,0.028-0.002,0.043-0.002c3.567,0,6.458,2.894,6.458,6.461
		c0,3.566-2.891,6.459-6.458,6.459c-0.015,0-0.028-0.002-0.043-0.002v23.085c0.015,0,0.028-0.002,0.043-0.002
		c3.567,0,6.458,2.893,6.458,6.459c0,3.567-2.891,6.46-6.458,6.46c-0.015,0-0.028-0.002-0.043-0.002v23.085
		c0.015,0,0.028-0.002,0.043-0.002c3.554,0,6.434,2.871,6.456,6.419h23.075c0.022-3.548,2.904-6.419,6.457-6.419
		c3.555,0,6.437,2.871,6.459,6.419h23.072c0.022-3.548,2.904-6.419,6.457-6.419c3.554,0,6.437,2.871,6.458,6.419h23.073
		c0.022-3.548,2.904-6.419,6.457-6.419c3.554,0,6.436,2.871,6.458,6.419h23.072c0.022-3.548,2.905-6.419,6.458-6.419
		c3.554,0,6.436,2.871,6.458,6.419h23.073c0.022-3.548,2.903-6.419,6.457-6.419c3.553,0,6.436,2.871,6.458,6.419h23.073
		c0.022-3.548,2.903-6.419,6.457-6.419c3.553,0,6.436,2.871,6.458,6.419h23.073c0.022-3.548,2.903-6.419,6.458-6.419
		s6.436,2.871,6.458,6.419h23.071c0.021-3.548,2.904-6.419,6.46-6.419c3.554,0,6.435,2.871,6.456,6.419h23.075
		c0.021-3.548,2.901-6.419,6.456-6.419c3.552,0,6.437,2.871,6.458,6.419h23.072c0.021-3.548,2.903-6.419,6.457-6.419
		s6.437,2.871,6.458,6.419h23.072c0.021-3.548,2.902-6.419,6.457-6.419c3.554,0,6.437,2.871,6.458,6.419h23.074
		c0.021-3.548,2.902-6.419,6.456-6.419c3.553,0,6.437,2.871,6.458,6.419h23.073c0.021-3.548,2.904-6.419,6.457-6.419
		c3.554,0,6.436,2.871,6.457,6.419h23.073c0.021-3.548,2.904-6.419,6.457-6.419c0.043,0,0.084,0.006,0.127,0.007v-23.095
		c-0.043,0.001-0.084,0.007-0.127,0.007c-3.566,0-6.459-2.893-6.459-6.46c0-3.566,2.893-6.459,6.459-6.459
		c0.043,0,0.084,0.006,0.127,0.007v-23.095c-0.043,0.001-0.084,0.007-0.127,0.007c-3.566,0-6.459-2.893-6.459-6.459
		c0-3.567,2.893-6.461,6.459-6.461c0.043,0,0.084,0.006,0.127,0.007v-23.094c-0.043,0.001-0.084,0.007-0.127,0.007
		c-3.566,0-6.459-2.893-6.459-6.46c0-3.566,2.893-6.459,6.459-6.459c0.043,0,0.084,0.006,0.127,0.007v-23.096
		c-0.043,0.001-0.084,0.007-0.127,0.007c-3.566,0-6.459-2.893-6.459-6.459c0-3.567,2.893-6.461,6.459-6.461
		c0.043,0,0.084,0.006,0.127,0.007v-23.094c-0.043,0.001-0.084,0.007-0.127,0.007c-3.566,0-6.459-2.893-6.459-6.46
		c0-3.566,2.893-6.459,6.459-6.459c0.043,0,0.084,0.006,0.127,0.007v-23.095c-0.043,0.001-0.084,0.007-0.127,0.007
		c-3.566,0-6.459-2.893-6.459-6.459c0-3.567,2.893-6.461,6.459-6.461c0.043,0,0.084,0.006,0.127,0.007v-23.094
		c-0.043,0.001-0.084,0.007-0.127,0.007c-3.566,0-6.459-2.893-6.459-6.459c0-3.567,2.893-6.46,6.459-6.46
		c0.043,0,0.084,0.005,0.127,0.006v-23.094c-0.043,0.001-0.084,0.006-0.127,0.006c-3.566,0-6.459-2.893-6.459-6.459
		s2.893-6.46,6.459-6.46c0.043,0,0.084,0.005,0.127,0.006v-23.093c-0.043,0.001-0.084,0.006-0.127,0.006
		c-3.566,0-6.459-2.893-6.459-6.46s2.893-6.46,6.459-6.46c0.043,0,0.084,0.005,0.127,0.006v-23.093
		c-0.043,0.001-0.084,0.006-0.127,0.006c-3.566,0-6.459-2.893-6.459-6.459s2.893-6.46,6.459-6.46c0.043,0,0.084,0.005,0.127,0.006
		v-23.093c-0.043,0.001-0.084,0.006-0.127,0.006c-3.566,0-6.459-2.893-6.459-6.46s2.893-6.46,6.459-6.46
		c0.043,0,0.084,0.005,0.127,0.006V78.492c-0.043,0.001-0.084,0.006-0.127,0.006c-3.566,0-6.459-2.893-6.459-6.459
		s2.893-6.46,6.459-6.46c0.043,0,0.084,0.005,0.127,0.006V42.492C503.957,42.493,503.916,42.498,503.873,42.498z M36.03,474.5
		c-3.566,0-6.458-2.893-6.458-6.46c0-3.566,2.892-6.459,6.458-6.459c3.568,0,6.461,2.893,6.461,6.459
		C42.491,471.607,39.599,474.5,36.03,474.5z M36.03,438.5c-3.566,0-6.458-2.893-6.458-6.459c0-3.567,2.892-6.461,6.458-6.461
		c3.568,0,6.461,2.894,6.461,6.461C42.491,435.607,39.599,438.5,36.03,438.5z M36.03,402.5c-3.566,0-6.458-2.893-6.458-6.46
		c0-3.566,2.892-6.459,6.458-6.459c3.568,0,6.461,2.893,6.461,6.459C42.491,399.607,39.599,402.5,36.03,402.5z M36.03,366.499
		c-3.566,0-6.458-2.893-6.458-6.459c0-3.567,2.892-6.461,6.458-6.461c3.568,0,6.461,2.894,6.461,6.461
		C42.491,363.606,39.599,366.499,36.03,366.499z M36.03,330.499c-3.566,0-6.458-2.893-6.458-6.46c0-3.566,2.892-6.459,6.458-6.459
		c3.568,0,6.461,2.893,6.461,6.459C42.491,327.606,39.599,330.499,36.03,330.499z M36.03,294.499c-3.566,0-6.458-2.893-6.458-6.459
		c0-3.567,2.892-6.461,6.458-6.461c3.568,0,6.461,2.894,6.461,6.461C42.491,291.606,39.599,294.499,36.03,294.499z M36.03,258.499
		c-3.566,0-6.458-2.893-6.458-6.459c0-3.567,2.892-6.46,6.458-6.46c3.568,0,6.461,2.893,6.461,6.46
		C42.491,255.606,39.599,258.499,36.03,258.499z M36.03,222.499c-3.566,0-6.458-2.893-6.458-6.459s2.892-6.46,6.458-6.46
		c3.568,0,6.461,2.893,6.461,6.46S39.599,222.499,36.03,222.499z M36.03,186.499c-3.566,0-6.458-2.893-6.458-6.46
		s2.892-6.46,6.458-6.46c3.568,0,6.461,2.893,6.461,6.46S39.599,186.499,36.03,186.499z M36.03,150.499
		c-3.566,0-6.458-2.893-6.458-6.459s2.892-6.46,6.458-6.46c3.568,0,6.461,2.893,6.461,6.46S39.599,150.499,36.03,150.499z
		 M36.03,114.499c-3.566,0-6.458-2.893-6.458-6.46s2.892-6.46,6.458-6.46c3.568,0,6.461,2.893,6.461,6.46
		S39.599,114.499,36.03,114.499z M36.03,78.498c-3.566,0-6.458-2.893-6.458-6.459s2.892-6.46,6.458-6.46
		c3.568,0,6.461,2.893,6.461,6.46S39.599,78.498,36.03,78.498z M36.03,42.498c-3.566,0-6.458-2.893-6.458-6.46
		s2.892-6.46,6.458-6.46c3.568,0,6.461,2.893,6.461,6.46S39.599,42.498,36.03,42.498z M72.018,474.5
		c-3.567,0-6.459-2.893-6.459-6.46c0-3.566,2.892-6.459,6.459-6.459c3.567,0,6.46,2.893,6.46,6.459
		C78.479,471.607,75.585,474.5,72.018,474.5z M72.018,438.5c-3.567,0-6.459-2.893-6.459-6.459c0-3.567,2.892-6.461,6.459-6.461
		c3.567,0,6.46,2.894,6.46,6.461C78.479,435.607,75.585,438.5,72.018,438.5z M72.018,402.5c-3.567,0-6.459-2.893-6.459-6.46
		c0-3.566,2.892-6.459,6.459-6.459c3.567,0,6.46,2.893,6.46,6.459C78.479,399.607,75.585,402.5,72.018,402.5z M72.018,366.499
		c-3.567,0-6.459-2.893-6.459-6.459c0-3.567,2.892-6.461,6.459-6.461c3.567,0,6.46,2.894,6.46,6.461
		C78.479,363.606,75.585,366.499,72.018,366.499z M72.018,330.499c-3.567,0-6.459-2.893-6.459-6.46c0-3.566,2.892-6.459,6.459-6.459
		c3.567,0,6.46,2.893,6.46,6.459C78.479,327.606,75.585,330.499,72.018,330.499z M72.018,294.499c-3.567,0-6.459-2.893-6.459-6.459
		c0-3.567,2.892-6.461,6.459-6.461c3.567,0,6.46,2.894,6.46,6.461C78.479,291.606,75.585,294.499,72.018,294.499z M72.018,258.499
		c-3.567,0-6.459-2.893-6.459-6.459c0-3.567,2.892-6.46,6.459-6.46c3.567,0,6.46,2.893,6.46,6.46
		C78.479,255.606,75.585,258.499,72.018,258.499z M72.018,222.499c-3.567,0-6.459-2.893-6.459-6.459s2.892-6.46,6.459-6.46
		c3.567,0,6.46,2.893,6.46,6.46S75.585,222.499,72.018,222.499z M72.018,186.499c-3.567,0-6.459-2.893-6.459-6.46
		s2.892-6.46,6.459-6.46c3.567,0,6.46,2.893,6.46,6.46S75.585,186.499,72.018,186.499z M72.018,150.499
		c-3.567,0-6.459-2.893-6.459-6.459s2.892-6.46,6.459-6.46c3.567,0,6.46,2.893,6.46,6.46S75.585,150.499,72.018,150.499z
		 M72.018,114.499c-3.567,0-6.459-2.893-6.459-6.46s2.892-6.46,6.459-6.46c3.567,0,6.46,2.893,6.46,6.46
		S75.585,114.499,72.018,114.499z M72.018,78.498c-3.567,0-6.459-2.893-6.459-6.459s2.892-6.46,6.459-6.46
		c3.567,0,6.46,2.893,6.46,6.46S75.585,78.498,72.018,78.498z M72.018,42.498c-3.567,0-6.459-2.893-6.459-6.46
		s2.892-6.46,6.459-6.46c3.567,0,6.46,2.893,6.46,6.46S75.585,42.498,72.018,42.498z M108.006,474.5
		c-3.567,0-6.459-2.893-6.459-6.46c0-3.566,2.892-6.459,6.459-6.459c3.567,0,6.459,2.893,6.459,6.459
		C114.466,471.607,111.574,474.5,108.006,474.5z M108.006,438.5c-3.567,0-6.459-2.893-6.459-6.459c0-3.567,2.892-6.461,6.459-6.461
		c3.567,0,6.459,2.894,6.459,6.461C114.466,435.607,111.574,438.5,108.006,438.5z M108.006,402.5c-3.567,0-6.459-2.893-6.459-6.46
		c0-3.566,2.892-6.459,6.459-6.459c3.567,0,6.459,2.893,6.459,6.459C114.466,399.607,111.574,402.5,108.006,402.5z M108.006,366.499
		c-3.567,0-6.459-2.893-6.459-6.459c0-3.567,2.892-6.461,6.459-6.461c3.567,0,6.459,2.894,6.459,6.461
		C114.466,363.606,111.574,366.499,108.006,366.499z M108.006,330.499c-3.567,0-6.459-2.893-6.459-6.46
		c0-3.566,2.892-6.459,6.459-6.459c3.567,0,6.459,2.893,6.459,6.459C114.466,327.606,111.574,330.499,108.006,330.499z
		 M108.006,294.499c-3.567,0-6.459-2.893-6.459-6.459c0-3.567,2.892-6.461,6.459-6.461c3.567,0,6.459,2.894,6.459,6.461
		C114.466,291.606,111.574,294.499,108.006,294.499z M108.006,258.499c-3.567,0-6.459-2.893-6.459-6.459
		c0-3.567,2.892-6.46,6.459-6.46c3.567,0,6.459,2.893,6.459,6.46C114.466,255.606,111.574,258.499,108.006,258.499z
		 M108.006,222.499c-3.567,0-6.459-2.893-6.459-6.459s2.892-6.46,6.459-6.46c3.567,0,6.459,2.893,6.459,6.46
		S111.574,222.499,108.006,222.499z M108.006,186.499c-3.567,0-6.459-2.893-6.459-6.46s2.892-6.46,6.459-6.46
		c3.567,0,6.459,2.893,6.459,6.46S111.574,186.499,108.006,186.499z M108.006,150.499c-3.567,0-6.459-2.893-6.459-6.459
		s2.892-6.46,6.459-6.46c3.567,0,6.459,2.893,6.459,6.46S111.574,150.499,108.006,150.499z M108.006,114.499
		c-3.567,0-6.459-2.893-6.459-6.46s2.892-6.46,6.459-6.46c3.567,0,6.459,2.893,6.459,6.46S111.574,114.499,108.006,114.499z
		 M108.006,78.498c-3.567,0-6.459-2.893-6.459-6.459s2.892-6.46,6.459-6.46c3.567,0,6.459,2.893,6.459,6.46
		S111.574,78.498,108.006,78.498z M108.006,42.498c-3.567,0-6.459-2.893-6.459-6.46s2.892-6.46,6.459-6.46
		c3.567,0,6.459,2.893,6.459,6.46S111.574,42.498,108.006,42.498z M143.995,474.5c-3.567,0-6.46-2.893-6.46-6.46
		c0-3.566,2.894-6.459,6.46-6.459c3.567,0,6.459,2.893,6.459,6.459C150.454,471.607,147.562,474.5,143.995,474.5z M143.995,438.5
		c-3.567,0-6.46-2.893-6.46-6.459c0-3.567,2.894-6.461,6.46-6.461c3.567,0,6.459,2.894,6.459,6.461
		C150.454,435.607,147.562,438.5,143.995,438.5z M143.995,402.5c-3.567,0-6.46-2.893-6.46-6.46c0-3.566,2.894-6.459,6.46-6.459
		c3.567,0,6.459,2.893,6.459,6.459C150.454,399.607,147.562,402.5,143.995,402.5z M143.995,366.499c-3.567,0-6.46-2.893-6.46-6.459
		c0-3.567,2.894-6.461,6.46-6.461c3.567,0,6.459,2.894,6.459,6.461C150.454,363.606,147.562,366.499,143.995,366.499z
		 M143.995,330.499c-3.567,0-6.46-2.893-6.46-6.46c0-3.566,2.894-6.459,6.46-6.459c3.567,0,6.459,2.893,6.459,6.459
		C150.454,327.606,147.562,330.499,143.995,330.499z M143.995,294.499c-3.567,0-6.46-2.893-6.46-6.459
		c0-3.567,2.894-6.461,6.46-6.461c3.567,0,6.459,2.894,6.459,6.461C150.454,291.606,147.562,294.499,143.995,294.499z
		 M143.995,258.499c-3.567,0-6.46-2.893-6.46-6.459c0-3.567,2.894-6.46,6.46-6.46c3.567,0,6.459,2.893,6.459,6.46
		C150.454,255.606,147.562,258.499,143.995,258.499z M143.995,222.499c-3.567,0-6.46-2.893-6.46-6.459s2.894-6.46,6.46-6.46
		c3.567,0,6.459,2.893,6.459,6.46S147.562,222.499,143.995,222.499z M143.995,186.499c-3.567,0-6.46-2.893-6.46-6.46
		s2.894-6.46,6.46-6.46c3.567,0,6.459,2.893,6.459,6.46S147.562,186.499,143.995,186.499z M143.995,150.499
		c-3.567,0-6.46-2.893-6.46-6.459s2.894-6.46,6.46-6.46c3.567,0,6.459,2.893,6.459,6.46S147.562,150.499,143.995,150.499z
		 M143.995,114.499c-3.567,0-6.46-2.893-6.46-6.46s2.894-6.46,6.46-6.46c3.567,0,6.459,2.893,6.459,6.46
		S147.562,114.499,143.995,114.499z M143.995,78.498c-3.567,0-6.46-2.893-6.46-6.459s2.894-6.46,6.46-6.46
		c3.567,0,6.459,2.893,6.459,6.46S147.562,78.498,143.995,78.498z M143.995,42.498c-3.567,0-6.46-2.893-6.46-6.46
		s2.894-6.46,6.46-6.46c3.567,0,6.459,2.893,6.459,6.46S147.562,42.498,143.995,42.498z M179.982,474.5
		c-3.567,0-6.459-2.893-6.459-6.46c0-3.566,2.892-6.459,6.459-6.459c3.567,0,6.459,2.893,6.459,6.459
		C186.442,471.607,183.549,474.5,179.982,474.5z M179.982,438.5c-3.567,0-6.459-2.893-6.459-6.459c0-3.567,2.892-6.461,6.459-6.461
		c3.567,0,6.459,2.894,6.459,6.461C186.442,435.607,183.549,438.5,179.982,438.5z M179.982,402.5c-3.567,0-6.459-2.893-6.459-6.46
		c0-3.566,2.892-6.459,6.459-6.459c3.567,0,6.459,2.893,6.459,6.459C186.442,399.607,183.549,402.5,179.982,402.5z M179.982,366.499
		c-3.567,0-6.459-2.893-6.459-6.459c0-3.567,2.892-6.461,6.459-6.461c3.567,0,6.459,2.894,6.459,6.461
		C186.442,363.606,183.549,366.499,179.982,366.499z M179.982,330.499c-3.567,0-6.459-2.893-6.459-6.46
		c0-3.566,2.892-6.459,6.459-6.459c3.567,0,6.459,2.893,6.459,6.459C186.442,327.606,183.549,330.499,179.982,330.499z
		 M179.982,294.499c-3.567,0-6.459-2.893-6.459-6.459c0-3.567,2.892-6.461,6.459-6.461c3.567,0,6.459,2.894,6.459,6.461
		C186.442,291.606,183.549,294.499,179.982,294.499z M179.982,258.499c-3.567,0-6.459-2.893-6.459-6.459
		c0-3.567,2.892-6.46,6.459-6.46c3.567,0,6.459,2.893,6.459,6.46C186.442,255.606,183.549,258.499,179.982,258.499z
		 M179.982,222.499c-3.567,0-6.459-2.893-6.459-6.459s2.892-6.46,6.459-6.46c3.567,0,6.459,2.893,6.459,6.46
		S183.549,222.499,179.982,222.499z M179.982,186.499c-3.567,0-6.459-2.893-6.459-6.46s2.892-6.46,6.459-6.46
		c3.567,0,6.459,2.893,6.459,6.46S183.549,186.499,179.982,186.499z M179.982,150.499c-3.567,0-6.459-2.893-6.459-6.459
		s2.892-6.46,6.459-6.46c3.567,0,6.459,2.893,6.459,6.46S183.549,150.499,179.982,150.499z M179.982,114.499
		c-3.567,0-6.459-2.893-6.459-6.46s2.892-6.46,6.459-6.46c3.567,0,6.459,2.893,6.459,6.46S183.549,114.499,179.982,114.499z
		 M179.982,78.498c-3.567,0-6.459-2.893-6.459-6.459s2.892-6.46,6.459-6.46c3.567,0,6.459,2.893,6.459,6.46
		S183.549,78.498,179.982,78.498z M179.982,42.498c-3.567,0-6.459-2.893-6.459-6.46s2.892-6.46,6.459-6.46
		c3.567,0,6.459,2.893,6.459,6.46S183.549,42.498,179.982,42.498z M215.97,474.5c-3.567,0-6.459-2.893-6.459-6.46
		c0-3.566,2.892-6.459,6.459-6.459c3.567,0,6.459,2.893,6.459,6.459C222.43,471.607,219.537,474.5,215.97,474.5z M215.97,438.5
		c-3.567,0-6.459-2.893-6.459-6.459c0-3.567,2.892-6.461,6.459-6.461c3.567,0,6.459,2.894,6.459,6.461
		C222.43,435.607,219.537,438.5,215.97,438.5z M215.97,402.5c-3.567,0-6.459-2.893-6.459-6.46c0-3.566,2.892-6.459,6.459-6.459
		c3.567,0,6.459,2.893,6.459,6.459C222.43,399.607,219.537,402.5,215.97,402.5z M215.97,366.499c-3.567,0-6.459-2.893-6.459-6.459
		c0-3.567,2.892-6.461,6.459-6.461c3.567,0,6.459,2.894,6.459,6.461C222.43,363.606,219.537,366.499,215.97,366.499z
		 M215.97,330.499c-3.567,0-6.459-2.893-6.459-6.46c0-3.566,2.892-6.459,6.459-6.459c3.567,0,6.459,2.893,6.459,6.459
		C222.43,327.606,219.537,330.499,215.97,330.499z M215.97,294.499c-3.567,0-6.459-2.893-6.459-6.459
		c0-3.567,2.892-6.461,6.459-6.461c3.567,0,6.459,2.894,6.459,6.461C222.43,291.606,219.537,294.499,215.97,294.499z
		 M215.97,258.499c-3.567,0-6.459-2.893-6.459-6.459c0-3.567,2.892-6.46,6.459-6.46c3.567,0,6.459,2.893,6.459,6.46
		C222.43,255.606,219.537,258.499,215.97,258.499z M215.97,222.499c-3.567,0-6.459-2.893-6.459-6.459s2.892-6.46,6.459-6.46
		c3.567,0,6.459,2.893,6.459,6.46S219.537,222.499,215.97,222.499z M215.97,186.499c-3.567,0-6.459-2.893-6.459-6.46
		s2.892-6.46,6.459-6.46c3.567,0,6.459,2.893,6.459,6.46S219.537,186.499,215.97,186.499z M215.97,150.499
		c-3.567,0-6.459-2.893-6.459-6.459s2.892-6.46,6.459-6.46c3.567,0,6.459,2.893,6.459,6.46S219.537,150.499,215.97,150.499z
		 M215.97,114.499c-3.567,0-6.459-2.893-6.459-6.46s2.892-6.46,6.459-6.46c3.567,0,6.459,2.893,6.459,6.46
		S219.537,114.499,215.97,114.499z M215.97,78.498c-3.567,0-6.459-2.893-6.459-6.459s2.892-6.46,6.459-6.46
		c3.567,0,6.459,2.893,6.459,6.46S219.537,78.498,215.97,78.498z M215.97,42.498c-3.567,0-6.459-2.893-6.459-6.46
		s2.892-6.46,6.459-6.46c3.567,0,6.459,2.893,6.459,6.46S219.537,42.498,215.97,42.498z M251.958,474.5
		c-3.568,0-6.459-2.893-6.459-6.46c0-3.566,2.892-6.459,6.459-6.459s6.459,2.893,6.459,6.459
		C258.418,471.607,255.526,474.5,251.958,474.5z M251.958,438.5c-3.568,0-6.459-2.893-6.459-6.459c0-3.567,2.892-6.461,6.459-6.461
		s6.459,2.894,6.459,6.461C258.418,435.607,255.526,438.5,251.958,438.5z M251.958,402.5c-3.568,0-6.459-2.893-6.459-6.46
		c0-3.566,2.892-6.459,6.459-6.459s6.459,2.893,6.459,6.459C258.418,399.607,255.526,402.5,251.958,402.5z M251.958,366.499
		c-3.568,0-6.459-2.893-6.459-6.459c0-3.567,2.892-6.461,6.459-6.461s6.459,2.894,6.459,6.461
		C258.418,363.606,255.526,366.499,251.958,366.499z M251.958,330.499c-3.568,0-6.459-2.893-6.459-6.46
		c0-3.566,2.892-6.459,6.459-6.459s6.459,2.893,6.459,6.459C258.418,327.606,255.526,330.499,251.958,330.499z M251.958,294.499
		c-3.568,0-6.459-2.893-6.459-6.459c0-3.567,2.892-6.461,6.459-6.461s6.459,2.894,6.459,6.461
		C258.418,291.606,255.526,294.499,251.958,294.499z M251.958,258.499c-3.568,0-6.459-2.893-6.459-6.459
		c0-3.567,2.892-6.46,6.459-6.46s6.459,2.893,6.459,6.46C258.418,255.606,255.526,258.499,251.958,258.499z M251.958,222.499
		c-3.568,0-6.459-2.893-6.459-6.459s2.892-6.46,6.459-6.46s6.459,2.893,6.459,6.46S255.526,222.499,251.958,222.499z
		 M251.958,186.499c-3.568,0-6.459-2.893-6.459-6.46s2.892-6.46,6.459-6.46s6.459,2.893,6.459,6.46S255.526,186.499,251.958,186.499
		z M251.958,150.499c-3.568,0-6.459-2.893-6.459-6.459s2.892-6.46,6.459-6.46s6.459,2.893,6.459,6.46
		S255.526,150.499,251.958,150.499z M251.958,114.499c-3.568,0-6.459-2.893-6.459-6.46s2.892-6.46,6.459-6.46
		s6.459,2.893,6.459,6.46S255.526,114.499,251.958,114.499z M251.958,78.498c-3.568,0-6.459-2.893-6.459-6.459
		s2.892-6.46,6.459-6.46s6.459,2.893,6.459,6.46S255.526,78.498,251.958,78.498z M251.958,42.498c-3.568,0-6.459-2.893-6.459-6.46
		s2.892-6.46,6.459-6.46s6.459,2.893,6.459,6.46S255.526,42.498,251.958,42.498z M287.947,474.5c-3.569,0-6.462-2.893-6.462-6.46
		c0-3.566,2.893-6.459,6.462-6.459c3.567,0,6.458,2.893,6.458,6.459C294.405,471.607,291.515,474.5,287.947,474.5z M287.947,438.5
		c-3.569,0-6.462-2.893-6.462-6.459c0-3.567,2.893-6.461,6.462-6.461c3.567,0,6.458,2.894,6.458,6.461
		C294.405,435.607,291.515,438.5,287.947,438.5z M287.947,402.5c-3.569,0-6.462-2.893-6.462-6.46c0-3.566,2.893-6.459,6.462-6.459
		c3.567,0,6.458,2.893,6.458,6.459C294.405,399.607,291.515,402.5,287.947,402.5z M287.947,366.499
		c-3.569,0-6.462-2.893-6.462-6.459c0-3.567,2.893-6.461,6.462-6.461c3.567,0,6.458,2.894,6.458,6.461
		C294.405,363.606,291.515,366.499,287.947,366.499z M287.947,330.499c-3.569,0-6.462-2.893-6.462-6.46
		c0-3.566,2.893-6.459,6.462-6.459c3.567,0,6.458,2.893,6.458,6.459C294.405,327.606,291.515,330.499,287.947,330.499z
		 M287.947,294.499c-3.569,0-6.462-2.893-6.462-6.459c0-3.567,2.893-6.461,6.462-6.461c3.567,0,6.458,2.894,6.458,6.461
		C294.405,291.606,291.515,294.499,287.947,294.499z M287.947,258.499c-3.569,0-6.462-2.893-6.462-6.459
		c0-3.567,2.893-6.46,6.462-6.46c3.567,0,6.458,2.893,6.458,6.46C294.405,255.606,291.515,258.499,287.947,258.499z
		 M287.947,222.499c-3.569,0-6.462-2.893-6.462-6.459s2.893-6.46,6.462-6.46c3.567,0,6.458,2.893,6.458,6.46
		S291.515,222.499,287.947,222.499z M287.947,186.499c-3.569,0-6.462-2.893-6.462-6.46s2.893-6.46,6.462-6.46
		c3.567,0,6.458,2.893,6.458,6.46S291.515,186.499,287.947,186.499z M287.947,150.499c-3.569,0-6.462-2.893-6.462-6.459
		s2.893-6.46,6.462-6.46c3.567,0,6.458,2.893,6.458,6.46S291.515,150.499,287.947,150.499z M287.947,114.499
		c-3.569,0-6.462-2.893-6.462-6.46s2.893-6.46,6.462-6.46c3.567,0,6.458,2.893,6.458,6.46S291.515,114.499,287.947,114.499z
		 M287.947,78.498c-3.569,0-6.462-2.893-6.462-6.459s2.893-6.46,6.462-6.46c3.567,0,6.458,2.893,6.458,6.46
		S291.515,78.498,287.947,78.498z M287.947,42.498c-3.569,0-6.462-2.893-6.462-6.46s2.893-6.46,6.462-6.46
		c3.567,0,6.458,2.893,6.458,6.46S291.515,42.498,287.947,42.498z M323.935,474.5c-3.568,0-6.458-2.893-6.458-6.46
		c0-3.566,2.89-6.459,6.458-6.459c3.565,0,6.46,2.893,6.46,6.459C330.395,471.607,327.5,474.5,323.935,474.5z M323.935,438.5
		c-3.568,0-6.458-2.893-6.458-6.459c0-3.567,2.89-6.461,6.458-6.461c3.565,0,6.46,2.894,6.46,6.461
		C330.395,435.607,327.5,438.5,323.935,438.5z M323.935,402.5c-3.568,0-6.458-2.893-6.458-6.46c0-3.566,2.89-6.459,6.458-6.459
		c3.565,0,6.46,2.893,6.46,6.459C330.395,399.607,327.5,402.5,323.935,402.5z M323.935,366.499c-3.568,0-6.458-2.893-6.458-6.459
		c0-3.567,2.89-6.461,6.458-6.461c3.565,0,6.46,2.894,6.46,6.461C330.395,363.606,327.5,366.499,323.935,366.499z M323.935,330.499
		c-3.568,0-6.458-2.893-6.458-6.46c0-3.566,2.89-6.459,6.458-6.459c3.565,0,6.46,2.893,6.46,6.459
		C330.395,327.606,327.5,330.499,323.935,330.499z M323.935,294.499c-3.568,0-6.458-2.893-6.458-6.459
		c0-3.567,2.89-6.461,6.458-6.461c3.565,0,6.46,2.894,6.46,6.461C330.395,291.606,327.5,294.499,323.935,294.499z M323.935,258.499
		c-3.568,0-6.458-2.893-6.458-6.459c0-3.567,2.89-6.46,6.458-6.46c3.565,0,6.46,2.893,6.46,6.46
		C330.395,255.606,327.5,258.499,323.935,258.499z M323.935,222.499c-3.568,0-6.458-2.893-6.458-6.459s2.89-6.46,6.458-6.46
		c3.565,0,6.46,2.893,6.46,6.46S327.5,222.499,323.935,222.499z M323.935,186.499c-3.568,0-6.458-2.893-6.458-6.46
		s2.89-6.46,6.458-6.46c3.565,0,6.46,2.893,6.46,6.46S327.5,186.499,323.935,186.499z M323.935,150.499
		c-3.568,0-6.458-2.893-6.458-6.459s2.89-6.46,6.458-6.46c3.565,0,6.46,2.893,6.46,6.46S327.5,150.499,323.935,150.499z
		 M323.935,114.499c-3.568,0-6.458-2.893-6.458-6.46s2.89-6.46,6.458-6.46c3.565,0,6.46,2.893,6.46,6.46
		S327.5,114.499,323.935,114.499z M323.935,78.498c-3.568,0-6.458-2.893-6.458-6.459s2.89-6.46,6.458-6.46
		c3.565,0,6.46,2.893,6.46,6.46S327.5,78.498,323.935,78.498z M323.935,42.498c-3.568,0-6.458-2.893-6.458-6.46
		s2.89-6.46,6.458-6.46c3.565,0,6.46,2.893,6.46,6.46S327.5,42.498,323.935,42.498z M359.922,474.5c-3.567,0-6.459-2.893-6.459-6.46
		c0-3.566,2.892-6.459,6.459-6.459s6.46,2.893,6.46,6.459C366.382,471.607,363.489,474.5,359.922,474.5z M359.922,438.5
		c-3.567,0-6.459-2.893-6.459-6.459c0-3.567,2.892-6.461,6.459-6.461s6.46,2.894,6.46,6.461
		C366.382,435.607,363.489,438.5,359.922,438.5z M359.922,402.5c-3.567,0-6.459-2.893-6.459-6.46c0-3.566,2.892-6.459,6.459-6.459
		s6.46,2.893,6.46,6.459C366.382,399.607,363.489,402.5,359.922,402.5z M359.922,366.499c-3.567,0-6.459-2.893-6.459-6.459
		c0-3.567,2.892-6.461,6.459-6.461s6.46,2.894,6.46,6.461C366.382,363.606,363.489,366.499,359.922,366.499z M359.922,330.499
		c-3.567,0-6.459-2.893-6.459-6.46c0-3.566,2.892-6.459,6.459-6.459s6.46,2.893,6.46,6.459
		C366.382,327.606,363.489,330.499,359.922,330.499z M359.922,294.499c-3.567,0-6.459-2.893-6.459-6.459
		c0-3.567,2.892-6.461,6.459-6.461s6.46,2.894,6.46,6.461C366.382,291.606,363.489,294.499,359.922,294.499z M359.922,258.499
		c-3.567,0-6.459-2.893-6.459-6.459c0-3.567,2.892-6.46,6.459-6.46s6.46,2.893,6.46,6.46
		C366.382,255.606,363.489,258.499,359.922,258.499z M359.922,222.499c-3.567,0-6.459-2.893-6.459-6.459s2.892-6.46,6.459-6.46
		s6.46,2.893,6.46,6.46S363.489,222.499,359.922,222.499z M359.922,186.499c-3.567,0-6.459-2.893-6.459-6.46s2.892-6.46,6.459-6.46
		s6.46,2.893,6.46,6.46S363.489,186.499,359.922,186.499z M359.922,150.499c-3.567,0-6.459-2.893-6.459-6.459s2.892-6.46,6.459-6.46
		s6.46,2.893,6.46,6.46S363.489,150.499,359.922,150.499z M359.922,114.499c-3.567,0-6.459-2.893-6.459-6.46s2.892-6.46,6.459-6.46
		s6.46,2.893,6.46,6.46S363.489,114.499,359.922,114.499z M359.922,78.498c-3.567,0-6.459-2.893-6.459-6.459s2.892-6.46,6.459-6.46
		s6.46,2.893,6.46,6.46S363.489,78.498,359.922,78.498z M359.922,42.498c-3.567,0-6.459-2.893-6.459-6.46s2.892-6.46,6.459-6.46
		s6.46,2.893,6.46,6.46S363.489,42.498,359.922,42.498z M395.909,474.5c-3.568,0-6.459-2.893-6.459-6.46
		c0-3.566,2.891-6.459,6.459-6.459c3.567,0,6.46,2.893,6.46,6.459C402.369,471.607,399.477,474.5,395.909,474.5z M395.909,438.5
		c-3.568,0-6.459-2.893-6.459-6.459c0-3.567,2.891-6.461,6.459-6.461c3.567,0,6.46,2.894,6.46,6.461
		C402.369,435.607,399.477,438.5,395.909,438.5z M395.909,402.5c-3.568,0-6.459-2.893-6.459-6.46c0-3.566,2.891-6.459,6.459-6.459
		c3.567,0,6.46,2.893,6.46,6.459C402.369,399.607,399.477,402.5,395.909,402.5z M395.909,366.499c-3.568,0-6.459-2.893-6.459-6.459
		c0-3.567,2.891-6.461,6.459-6.461c3.567,0,6.46,2.894,6.46,6.461C402.369,363.606,399.477,366.499,395.909,366.499z
		 M395.909,330.499c-3.568,0-6.459-2.893-6.459-6.46c0-3.566,2.891-6.459,6.459-6.459c3.567,0,6.46,2.893,6.46,6.459
		C402.369,327.606,399.477,330.499,395.909,330.499z M395.909,294.499c-3.568,0-6.459-2.893-6.459-6.459
		c0-3.567,2.891-6.461,6.459-6.461c3.567,0,6.46,2.894,6.46,6.461C402.369,291.606,399.477,294.499,395.909,294.499z
		 M395.909,258.499c-3.568,0-6.459-2.893-6.459-6.459c0-3.567,2.891-6.46,6.459-6.46c3.567,0,6.46,2.893,6.46,6.46
		C402.369,255.606,399.477,258.499,395.909,258.499z M395.909,222.499c-3.568,0-6.459-2.893-6.459-6.459s2.891-6.46,6.459-6.46
		c3.567,0,6.46,2.893,6.46,6.46S399.477,222.499,395.909,222.499z M395.909,186.499c-3.568,0-6.459-2.893-6.459-6.46
		s2.891-6.46,6.459-6.46c3.567,0,6.46,2.893,6.46,6.46S399.477,186.499,395.909,186.499z M395.909,150.499
		c-3.568,0-6.459-2.893-6.459-6.459s2.891-6.46,6.459-6.46c3.567,0,6.46,2.893,6.46,6.46S399.477,150.499,395.909,150.499z
		 M395.909,114.499c-3.568,0-6.459-2.893-6.459-6.46s2.891-6.46,6.459-6.46c3.567,0,6.46,2.893,6.46,6.46
		S399.477,114.499,395.909,114.499z M395.909,78.498c-3.568,0-6.459-2.893-6.459-6.459s2.891-6.46,6.459-6.46
		c3.567,0,6.46,2.893,6.46,6.46S399.477,78.498,395.909,78.498z M395.909,42.498c-3.568,0-6.459-2.893-6.459-6.46
		s2.891-6.46,6.459-6.46c3.567,0,6.46,2.893,6.46,6.46S399.477,42.498,395.909,42.498z M431.897,474.5
		c-3.567,0-6.458-2.893-6.458-6.46c0-3.566,2.891-6.459,6.458-6.459c3.566,0,6.46,2.893,6.46,6.459
		C438.357,471.607,435.464,474.5,431.897,474.5z M431.897,438.5c-3.567,0-6.458-2.893-6.458-6.459c0-3.567,2.891-6.461,6.458-6.461
		c3.566,0,6.46,2.894,6.46,6.461C438.357,435.607,435.464,438.5,431.897,438.5z M431.897,402.5c-3.567,0-6.458-2.893-6.458-6.46
		c0-3.566,2.891-6.459,6.458-6.459c3.566,0,6.46,2.893,6.46,6.459C438.357,399.607,435.464,402.5,431.897,402.5z M431.897,366.499
		c-3.567,0-6.458-2.893-6.458-6.459c0-3.567,2.891-6.461,6.458-6.461c3.566,0,6.46,2.894,6.46,6.461
		C438.357,363.606,435.464,366.499,431.897,366.499z M431.897,330.499c-3.567,0-6.458-2.893-6.458-6.46
		c0-3.566,2.891-6.459,6.458-6.459c3.566,0,6.46,2.893,6.46,6.459C438.357,327.606,435.464,330.499,431.897,330.499z
		 M431.897,294.499c-3.567,0-6.458-2.893-6.458-6.459c0-3.567,2.891-6.461,6.458-6.461c3.566,0,6.46,2.894,6.46,6.461
		C438.357,291.606,435.464,294.499,431.897,294.499z M431.897,258.499c-3.567,0-6.458-2.893-6.458-6.459
		c0-3.567,2.891-6.46,6.458-6.46c3.566,0,6.46,2.893,6.46,6.46C438.357,255.606,435.464,258.499,431.897,258.499z M431.897,222.499
		c-3.567,0-6.458-2.893-6.458-6.459s2.891-6.46,6.458-6.46c3.566,0,6.46,2.893,6.46,6.46S435.464,222.499,431.897,222.499z
		 M431.897,186.499c-3.567,0-6.458-2.893-6.458-6.46s2.891-6.46,6.458-6.46c3.566,0,6.46,2.893,6.46,6.46
		S435.464,186.499,431.897,186.499z M431.897,150.499c-3.567,0-6.458-2.893-6.458-6.459s2.891-6.46,6.458-6.46
		c3.566,0,6.46,2.893,6.46,6.46S435.464,150.499,431.897,150.499z M431.897,114.499c-3.567,0-6.458-2.893-6.458-6.46
		s2.891-6.46,6.458-6.46c3.566,0,6.46,2.893,6.46,6.46S435.464,114.499,431.897,114.499z M431.897,78.498
		c-3.567,0-6.458-2.893-6.458-6.459s2.891-6.46,6.458-6.46c3.566,0,6.46,2.893,6.46,6.46S435.464,78.498,431.897,78.498z
		 M431.897,42.498c-3.567,0-6.458-2.893-6.458-6.46s2.891-6.46,6.458-6.46c3.566,0,6.46,2.893,6.46,6.46
		S435.464,42.498,431.897,42.498z M467.886,474.5c-3.566,0-6.459-2.893-6.459-6.46c0-3.566,2.893-6.459,6.459-6.459
		c3.567,0,6.459,2.893,6.459,6.459C474.345,471.607,471.453,474.5,467.886,474.5z M467.886,438.5c-3.566,0-6.459-2.893-6.459-6.459
		c0-3.567,2.893-6.461,6.459-6.461c3.567,0,6.459,2.894,6.459,6.461C474.345,435.607,471.453,438.5,467.886,438.5z M467.886,402.5
		c-3.566,0-6.459-2.893-6.459-6.46c0-3.566,2.893-6.459,6.459-6.459c3.567,0,6.459,2.893,6.459,6.459
		C474.345,399.607,471.453,402.5,467.886,402.5z M467.886,366.499c-3.566,0-6.459-2.893-6.459-6.459
		c0-3.567,2.893-6.461,6.459-6.461c3.567,0,6.459,2.894,6.459,6.461C474.345,363.606,471.453,366.499,467.886,366.499z
		 M467.886,330.499c-3.566,0-6.459-2.893-6.459-6.46c0-3.566,2.893-6.459,6.459-6.459c3.567,0,6.459,2.893,6.459,6.459
		C474.345,327.606,471.453,330.499,467.886,330.499z M467.886,294.499c-3.566,0-6.459-2.893-6.459-6.459
		c0-3.567,2.893-6.461,6.459-6.461c3.567,0,6.459,2.894,6.459,6.461C474.345,291.606,471.453,294.499,467.886,294.499z
		 M467.886,258.499c-3.566,0-6.459-2.893-6.459-6.459c0-3.567,2.893-6.46,6.459-6.46c3.567,0,6.459,2.893,6.459,6.46
		C474.345,255.606,471.453,258.499,467.886,258.499z M467.886,222.499c-3.566,0-6.459-2.893-6.459-6.459s2.893-6.46,6.459-6.46
		c3.567,0,6.459,2.893,6.459,6.46S471.453,222.499,467.886,222.499z M467.886,186.499c-3.566,0-6.459-2.893-6.459-6.46
		s2.893-6.46,6.459-6.46c3.567,0,6.459,2.893,6.459,6.46S471.453,186.499,467.886,186.499z M467.886,150.499
		c-3.566,0-6.459-2.893-6.459-6.459s2.893-6.46,6.459-6.46c3.567,0,6.459,2.893,6.459,6.46S471.453,150.499,467.886,150.499z
		 M467.886,114.499c-3.566,0-6.459-2.893-6.459-6.46s2.893-6.46,6.459-6.46c3.567,0,6.459,2.893,6.459,6.46
		S471.453,114.499,467.886,114.499z M467.886,78.498c-3.566,0-6.459-2.893-6.459-6.459s2.893-6.46,6.459-6.46
		c3.567,0,6.459,2.893,6.459,6.46S471.453,78.498,467.886,78.498z M467.886,42.498c-3.566,0-6.459-2.893-6.459-6.46
		s2.893-6.46,6.459-6.46c3.567,0,6.459,2.893,6.459,6.46S471.453,42.498,467.886,42.498z"/>
	<path fill="#231F20" d="M6.501,0.038c0-0.013-0.002-0.025-0.002-0.038H0v6.495c0.015,0,0.028,0.002,0.043,0.002
		C3.61,6.498,6.501,3.605,6.501,0.038z"/>
	<path fill="#231F20" d="M36.03,6.498c3.568,0,6.461-2.893,6.461-6.459c0-0.013-0.002-0.025-0.002-0.038H29.574
		c0,0.013-0.002,0.025-0.002,0.038C29.572,3.605,32.464,6.498,36.03,6.498z"/>
	<path fill="#231F20" d="M72.018,6.498c3.567,0,6.46-2.893,6.46-6.459c0-0.013-0.002-0.025-0.002-0.038H65.561
		c0,0.013-0.002,0.025-0.002,0.038C65.559,3.605,68.451,6.498,72.018,6.498z"/>
	<path fill="#231F20" d="M108.006,6.498c3.567,0,6.459-2.893,6.459-6.459c0-0.013-0.002-0.025-0.002-0.038h-12.915
		c0,0.013-0.002,0.025-0.002,0.038C101.547,3.605,104.439,6.498,108.006,6.498z"/>
	<path fill="#231F20" d="M143.995,6.498c3.567,0,6.459-2.893,6.459-6.459c0-0.013-0.002-0.025-0.002-0.038h-12.916
		c0,0.013-0.002,0.025-0.002,0.038C137.534,3.605,140.428,6.498,143.995,6.498z"/>
	<path fill="#231F20" d="M179.982,6.498c3.567,0,6.459-2.893,6.459-6.459c0-0.013-0.002-0.025-0.002-0.038h-12.915
		c0,0.013-0.002,0.025-0.002,0.038C173.523,3.605,176.415,6.498,179.982,6.498z"/>
	<path fill="#231F20" d="M215.97,6.498c3.567,0,6.459-2.893,6.459-6.459c0-0.013-0.002-0.025-0.002-0.038h-12.915
		c0,0.013-0.002,0.025-0.002,0.038C209.511,3.605,212.403,6.498,215.97,6.498z"/>
	<path fill="#231F20" d="M251.958,6.498c3.568,0,6.459-2.893,6.459-6.459c0-0.013-0.002-0.025-0.002-0.038h-12.915
		c0,0.013-0.002,0.025-0.002,0.038C245.499,3.605,248.391,6.498,251.958,6.498z"/>
	<path fill="#231F20" d="M287.947,6.498c3.567,0,6.458-2.893,6.458-6.459c0-0.013-0.002-0.025-0.002-0.038h-12.916
		c0,0.013-0.002,0.025-0.002,0.038C281.485,3.605,284.378,6.498,287.947,6.498z"/>
	<path fill="#231F20" d="M323.935,6.498c3.565,0,6.46-2.893,6.46-6.459c0-0.013-0.002-0.025-0.002-0.038h-12.914
		c0,0.013-0.002,0.025-0.002,0.038C317.477,3.605,320.366,6.498,323.935,6.498z"/>
	<path fill="#231F20" d="M359.922,6.498c3.567,0,6.46-2.893,6.46-6.459c0-0.013-0.002-0.025-0.002-0.038h-12.915
		c0,0.013-0.002,0.025-0.002,0.038C353.463,3.605,356.354,6.498,359.922,6.498z"/>
	<path fill="#231F20" d="M395.909,6.498c3.567,0,6.46-2.893,6.46-6.459c0-0.013-0.002-0.025-0.002-0.038h-12.915
		c0,0.013-0.002,0.025-0.002,0.038C389.45,3.605,392.341,6.498,395.909,6.498z"/>
	<path fill="#231F20" d="M431.897,6.498c3.566,0,6.46-2.893,6.46-6.459c0-0.013-0.002-0.025-0.002-0.038h-12.914
		c0,0.013-0.002,0.025-0.002,0.038C425.439,3.605,428.33,6.498,431.897,6.498z"/>
	<path fill="#231F20" d="M467.886,6.498c3.567,0,6.459-2.893,6.459-6.459c0-0.013-0.002-0.025-0.002-0.038h-12.914
		c0,0.013-0.002,0.025-0.002,0.038C461.427,3.605,464.319,6.498,467.886,6.498z"/>
	<path fill="#231F20" d="M503.873,6.498c0.043,0,0.084-0.005,0.127-0.006V0h-6.584c0,0.013-0.002,0.025-0.002,0.038
		C497.414,3.605,500.307,6.498,503.873,6.498z"/>
	<path fill="#231F20" d="M6.501,36.038c0-3.567-2.891-6.46-6.458-6.46c-0.015,0-0.028,0.002-0.043,0.002v12.916
		c0.015,0,0.028,0.002,0.043,0.002C3.61,42.498,6.501,39.605,6.501,36.038z"/>
	<circle fill="#231F20" cx="36.03" cy="36.038" r="6.46"/>
	<circle fill="#231F20" cx="72.018" cy="36.038" r="6.46"/>
	<circle fill="#231F20" cx="108.006" cy="36.038" r="6.46"/>
	<circle fill="#231F20" cx="143.995" cy="36.038" r="6.46"/>
	<circle fill="#231F20" cx="179.982" cy="36.038" r="6.46"/>
	<circle fill="#231F20" cx="215.97" cy="36.038" r="6.46"/>
	<circle fill="#231F20" cx="251.958" cy="36.038" r="6.46"/>
	<circle fill="#231F20" cx="287.947" cy="36.038" r="6.46"/>
	<circle fill="#231F20" cx="323.935" cy="36.038" r="6.46"/>
	<circle fill="#231F20" cx="359.922" cy="36.038" r="6.46"/>
	<circle fill="#231F20" cx="395.909" cy="36.038" r="6.46"/>
	<circle fill="#231F20" cx="431.897" cy="36.038" r="6.46"/>
	<circle fill="#231F20" cx="467.886" cy="36.038" r="6.46"/>
	<path fill="#231F20" d="M497.414,36.038c0,3.567,2.893,6.46,6.459,6.46c0.043,0,0.084-0.005,0.127-0.006V29.584
		c-0.043-0.001-0.084-0.006-0.127-0.006C500.307,29.578,497.414,32.471,497.414,36.038z"/>
	<path fill="#231F20" d="M6.501,72.039c0-3.567-2.891-6.46-6.458-6.46c-0.015,0-0.028,0.002-0.043,0.002v12.915
		c0.015,0,0.028,0.002,0.043,0.002C3.61,78.498,6.501,75.605,6.501,72.039z"/>
	<circle fill="#231F20" cx="36.03" cy="72.038" r="6.46"/>
	<circle fill="#231F20" cx="72.018" cy="72.038" r="6.46"/>
	<circle fill="#231F20" cx="108.006" cy="72.038" r="6.46"/>
	<circle fill="#231F20" cx="143.995" cy="72.038" r="6.46"/>
	<circle fill="#231F20" cx="179.982" cy="72.038" r="6.46"/>
	<circle fill="#231F20" cx="215.97" cy="72.038" r="6.46"/>
	<circle fill="#231F20" cx="251.958" cy="72.038" r="6.46"/>
	<circle fill="#231F20" cx="287.947" cy="72.038" r="6.46"/>
	<circle fill="#231F20" cx="323.935" cy="72.038" r="6.46"/>
	<circle fill="#231F20" cx="359.922" cy="72.038" r="6.46"/>
	<circle fill="#231F20" cx="395.909" cy="72.038" r="6.46"/>
	<circle fill="#231F20" cx="431.897" cy="72.038" r="6.46"/>
	<circle fill="#231F20" cx="467.886" cy="72.038" r="6.46"/>
	<path fill="#231F20" d="M497.414,72.039c0,3.567,2.893,6.459,6.459,6.459c0.043,0,0.084-0.005,0.127-0.006V65.585
		c-0.043-0.001-0.084-0.006-0.127-0.006C500.307,65.579,497.414,68.472,497.414,72.039z"/>
	<path fill="#231F20" d="M6.501,108.039c0-3.567-2.891-6.46-6.458-6.46c-0.015,0-0.028,0.002-0.043,0.002v12.915
		c0.015,0,0.028,0.002,0.043,0.002C3.61,114.499,6.501,111.606,6.501,108.039z"/>
	<circle fill="#231F20" cx="36.03" cy="108.039" r="6.46"/>
	<circle fill="#231F20" cx="72.018" cy="108.039" r="6.46"/>
	<circle fill="#231F20" cx="108.006" cy="108.039" r="6.46"/>
	<circle fill="#231F20" cx="143.995" cy="108.039" r="6.46"/>
	<circle fill="#231F20" cx="179.982" cy="108.039" r="6.46"/>
	<circle fill="#231F20" cx="215.97" cy="108.039" r="6.46"/>
	<circle fill="#231F20" cx="251.958" cy="108.039" r="6.46"/>
	<circle fill="#231F20" cx="287.947" cy="108.039" r="6.46"/>
	<circle fill="#231F20" cx="323.935" cy="108.039" r="6.46"/>
	<circle fill="#231F20" cx="359.922" cy="108.039" r="6.46"/>
	<circle fill="#231F20" cx="395.909" cy="108.039" r="6.46"/>
	<circle fill="#231F20" cx="431.897" cy="108.039" r="6.46"/>
	<circle fill="#231F20" cx="467.886" cy="108.039" r="6.46"/>
	<path fill="#231F20" d="M497.414,108.039c0,3.567,2.893,6.46,6.459,6.46c0.043,0,0.084-0.005,0.127-0.006v-12.907
		c-0.043-0.001-0.084-0.006-0.127-0.006C500.307,101.579,497.414,104.471,497.414,108.039z"/>
	<path fill="#231F20" d="M6.501,144.039c0-3.567-2.891-6.46-6.458-6.46c-0.015,0-0.028,0.002-0.043,0.002v12.915
		c0.015,0,0.028,0.002,0.043,0.002C3.61,150.499,6.501,147.606,6.501,144.039z"/>
	<circle fill="#231F20" cx="36.03" cy="144.039" r="6.46"/>
	<circle fill="#231F20" cx="72.018" cy="144.039" r="6.46"/>
	<circle fill="#231F20" cx="108.006" cy="144.039" r="6.46"/>
	<circle fill="#231F20" cx="143.995" cy="144.039" r="6.46"/>
	<circle fill="#231F20" cx="179.982" cy="144.039" r="6.46"/>
	<circle fill="#231F20" cx="215.97" cy="144.039" r="6.46"/>
	<circle fill="#231F20" cx="251.958" cy="144.039" r="6.46"/>
	<circle fill="#231F20" cx="287.947" cy="144.039" r="6.46"/>
	<circle fill="#231F20" cx="323.935" cy="144.039" r="6.46"/>
	<circle fill="#231F20" cx="359.922" cy="144.039" r="6.46"/>
	<circle fill="#231F20" cx="395.909" cy="144.039" r="6.46"/>
	<circle fill="#231F20" cx="431.897" cy="144.039" r="6.46"/>
	<circle fill="#231F20" cx="467.886" cy="144.039" r="6.46"/>
	<path fill="#231F20" d="M497.414,144.039c0,3.567,2.893,6.459,6.459,6.459c0.043,0,0.084-0.005,0.127-0.006v-12.907
		c-0.043-0.001-0.084-0.006-0.127-0.006C500.307,137.579,497.414,140.472,497.414,144.039z"/>
	<path fill="#231F20" d="M6.501,180.039c0-3.567-2.891-6.46-6.458-6.46c-0.015,0-0.028,0.002-0.043,0.002v12.916
		c0.015,0,0.028,0.002,0.043,0.002C3.61,186.499,6.501,183.606,6.501,180.039z"/>
	<circle fill="#231F20" cx="36.03" cy="180.039" r="6.46"/>
	<circle fill="#231F20" cx="72.018" cy="180.039" r="6.46"/>
	<circle fill="#231F20" cx="108.006" cy="180.039" r="6.46"/>
	<circle fill="#231F20" cx="143.995" cy="180.039" r="6.46"/>
	<circle fill="#231F20" cx="179.982" cy="180.039" r="6.46"/>
	<circle fill="#231F20" cx="215.97" cy="180.039" r="6.46"/>
	<circle fill="#231F20" cx="251.958" cy="180.039" r="6.46"/>
	<circle fill="#231F20" cx="287.947" cy="180.039" r="6.46"/>
	<circle fill="#231F20" cx="323.935" cy="180.039" r="6.46"/>
	<circle fill="#231F20" cx="359.922" cy="180.039" r="6.46"/>
	<circle fill="#231F20" cx="395.909" cy="180.039" r="6.46"/>
	<circle fill="#231F20" cx="431.897" cy="180.039" r="6.46"/>
	<circle fill="#231F20" cx="467.886" cy="180.039" r="6.46"/>
	<path fill="#231F20" d="M497.414,180.039c0,3.567,2.893,6.46,6.459,6.46c0.043,0,0.084-0.005,0.127-0.006v-12.907
		c-0.043-0.001-0.084-0.006-0.127-0.006C500.307,173.579,497.414,176.472,497.414,180.039z"/>
	<path fill="#231F20" d="M6.501,216.039c0-3.567-2.891-6.46-6.458-6.46c-0.015,0-0.028,0.002-0.043,0.002v12.915
		c0.015,0,0.028,0.002,0.043,0.002C3.61,222.499,6.501,219.606,6.501,216.039z"/>
	<circle fill="#231F20" cx="36.03" cy="216.039" r="6.46"/>
	<circle fill="#231F20" cx="72.018" cy="216.039" r="6.46"/>
	<circle fill="#231F20" cx="108.006" cy="216.039" r="6.46"/>
	<circle fill="#231F20" cx="143.995" cy="216.039" r="6.46"/>
	<circle fill="#231F20" cx="179.982" cy="216.039" r="6.46"/>
	<circle fill="#231F20" cx="215.97" cy="216.039" r="6.46"/>
	<circle fill="#231F20" cx="251.958" cy="216.039" r="6.46"/>
	<circle fill="#231F20" cx="287.947" cy="216.039" r="6.46"/>
	<circle fill="#231F20" cx="323.935" cy="216.039" r="6.46"/>
	<circle fill="#231F20" cx="359.922" cy="216.039" r="6.46"/>
	<circle fill="#231F20" cx="395.909" cy="216.039" r="6.46"/>
	<circle fill="#231F20" cx="431.897" cy="216.039" r="6.46"/>
	<circle fill="#231F20" cx="467.886" cy="216.039" r="6.46"/>
	<path fill="#231F20" d="M497.414,216.039c0,3.567,2.893,6.459,6.459,6.459c0.043,0,0.084-0.005,0.127-0.006v-12.907
		c-0.043-0.001-0.084-0.006-0.127-0.006C500.307,209.579,497.414,212.472,497.414,216.039z"/>
	<path fill="#231F20" d="M6.501,252.04c0-3.567-2.891-6.46-6.458-6.46c-0.015,0-0.028,0.002-0.043,0.002v12.915
		c0.015,0,0.028,0.002,0.043,0.002C3.61,258.499,6.501,255.606,6.501,252.04z"/>
	<circle fill="#231F20" cx="36.03" cy="252.039" r="6.46"/>
	<circle fill="#231F20" cx="72.018" cy="252.039" r="6.46"/>
	<circle fill="#231F20" cx="108.006" cy="252.039" r="6.46"/>
	<circle fill="#231F20" cx="143.995" cy="252.039" r="6.46"/>
	<circle fill="#231F20" cx="179.982" cy="252.039" r="6.46"/>
	<circle fill="#231F20" cx="215.97" cy="252.039" r="6.46"/>
	<circle fill="#231F20" cx="251.958" cy="252.039" r="6.46"/>
	<circle fill="#231F20" cx="287.947" cy="252.039" r="6.46"/>
	<circle fill="#231F20" cx="323.935" cy="252.039" r="6.46"/>
	<circle fill="#231F20" cx="359.922" cy="252.039" r="6.46"/>
	<circle fill="#231F20" cx="395.909" cy="252.039" r="6.46"/>
	<circle fill="#231F20" cx="431.897" cy="252.039" r="6.46"/>
	<circle fill="#231F20" cx="467.886" cy="252.039" r="6.46"/>
	<path fill="#231F20" d="M497.414,252.04c0,3.567,2.893,6.459,6.459,6.459c0.043,0,0.084-0.006,0.127-0.007v-12.906
		c-0.043-0.001-0.084-0.006-0.127-0.006C500.307,245.58,497.414,248.472,497.414,252.04z"/>
	<path fill="#231F20" d="M6.501,288.04c0-3.567-2.891-6.461-6.458-6.461c-0.015,0-0.028,0.002-0.043,0.002v12.916
		c0.015,0,0.028,0.002,0.043,0.002C3.61,294.499,6.501,291.606,6.501,288.04z"/>
	<circle fill="#231F20" cx="36.03" cy="288.039" r="6.46"/>
	<circle fill="#231F20" cx="72.018" cy="288.039" r="6.46"/>
	<circle fill="#231F20" cx="108.006" cy="288.039" r="6.46"/>
	<circle fill="#231F20" cx="143.995" cy="288.039" r="6.46"/>
	<circle fill="#231F20" cx="179.982" cy="288.039" r="6.46"/>
	<circle fill="#231F20" cx="215.97" cy="288.039" r="6.46"/>
	<circle fill="#231F20" cx="251.958" cy="288.039" r="6.46"/>
	<circle fill="#231F20" cx="287.947" cy="288.039" r="6.46"/>
	<circle fill="#231F20" cx="323.935" cy="288.039" r="6.46"/>
	<circle fill="#231F20" cx="359.922" cy="288.039" r="6.46"/>
	<circle fill="#231F20" cx="395.909" cy="288.039" r="6.46"/>
	<circle fill="#231F20" cx="431.897" cy="288.039" r="6.46"/>
	<circle fill="#231F20" cx="467.886" cy="288.039" r="6.46"/>
	<path fill="#231F20" d="M497.414,288.04c0,3.566,2.893,6.459,6.459,6.459c0.043,0,0.084-0.006,0.127-0.007v-12.906
		c-0.043-0.001-0.084-0.007-0.127-0.007C500.307,281.579,497.414,284.473,497.414,288.04z"/>
	<path fill="#231F20" d="M6.501,324.039c0-3.566-2.891-6.459-6.458-6.459c-0.015,0-0.028,0.002-0.043,0.002v12.915
		c0.015,0,0.028,0.002,0.043,0.002C3.61,330.499,6.501,327.606,6.501,324.039z"/>
	<circle fill="#231F20" cx="36.03" cy="324.04" r="6.459"/>
	<circle fill="#231F20" cx="72.018" cy="324.04" r="6.459"/>
	<circle fill="#231F20" cx="108.006" cy="324.04" r="6.459"/>
	<circle fill="#231F20" cx="143.995" cy="324.04" r="6.459"/>
	<circle fill="#231F20" cx="179.982" cy="324.04" r="6.459"/>
	<circle fill="#231F20" cx="215.97" cy="324.04" r="6.459"/>
	<circle fill="#231F20" cx="251.958" cy="324.04" r="6.459"/>
	<circle fill="#231F20" cx="287.947" cy="324.04" r="6.459"/>
	<circle fill="#231F20" cx="323.935" cy="324.04" r="6.459"/>
	<circle fill="#231F20" cx="359.922" cy="324.04" r="6.459"/>
	<circle fill="#231F20" cx="395.909" cy="324.04" r="6.459"/>
	<circle fill="#231F20" cx="431.897" cy="324.04" r="6.459"/>
	<circle fill="#231F20" cx="467.886" cy="324.04" r="6.459"/>
	<path fill="#231F20" d="M497.414,324.039c0,3.567,2.893,6.46,6.459,6.46c0.043,0,0.084-0.006,0.127-0.007v-12.905
		c-0.043-0.001-0.084-0.007-0.127-0.007C500.307,317.58,497.414,320.473,497.414,324.039z"/>
	<path fill="#231F20" d="M6.501,360.04c0-3.567-2.891-6.461-6.458-6.461c-0.015,0-0.028,0.002-0.043,0.002v12.916
		c0.015,0,0.028,0.002,0.043,0.002C3.61,366.499,6.501,363.606,6.501,360.04z"/>
	<circle fill="#231F20" cx="36.03" cy="360.039" r="6.46"/>
	<circle fill="#231F20" cx="72.018" cy="360.039" r="6.46"/>
	<circle fill="#231F20" cx="108.006" cy="360.039" r="6.46"/>
	<circle fill="#231F20" cx="143.995" cy="360.039" r="6.46"/>
	<circle fill="#231F20" cx="179.982" cy="360.039" r="6.46"/>
	<circle fill="#231F20" cx="215.97" cy="360.039" r="6.46"/>
	<circle fill="#231F20" cx="251.958" cy="360.039" r="6.46"/>
	<circle fill="#231F20" cx="287.947" cy="360.039" r="6.46"/>
	<circle fill="#231F20" cx="323.935" cy="360.039" r="6.46"/>
	<circle fill="#231F20" cx="359.922" cy="360.039" r="6.46"/>
	<circle fill="#231F20" cx="395.909" cy="360.039" r="6.46"/>
	<circle fill="#231F20" cx="431.897" cy="360.039" r="6.46"/>
	<circle fill="#231F20" cx="467.886" cy="360.039" r="6.46"/>
	<path fill="#231F20" d="M497.414,360.04c0,3.566,2.893,6.459,6.459,6.459c0.043,0,0.084-0.006,0.127-0.007v-12.906
		c-0.043-0.001-0.084-0.007-0.127-0.007C500.307,353.579,497.414,356.473,497.414,360.04z"/>
	<path fill="#231F20" d="M6.501,396.04c0-3.566-2.891-6.459-6.458-6.459c-0.015,0-0.028,0.002-0.043,0.002v12.915
		c0.015,0,0.028,0.002,0.043,0.002C3.61,402.5,6.501,399.607,6.501,396.04z"/>
	<circle fill="#231F20" cx="36.03" cy="396.041" r="6.459"/>
	<circle fill="#231F20" cx="72.018" cy="396.041" r="6.459"/>
	<circle fill="#231F20" cx="108.006" cy="396.041" r="6.459"/>
	<circle fill="#231F20" cx="143.995" cy="396.041" r="6.459"/>
	<circle fill="#231F20" cx="179.982" cy="396.041" r="6.459"/>
	<circle fill="#231F20" cx="215.97" cy="396.041" r="6.459"/>
	<circle fill="#231F20" cx="251.958" cy="396.041" r="6.459"/>
	<circle fill="#231F20" cx="287.947" cy="396.041" r="6.459"/>
	<circle fill="#231F20" cx="323.935" cy="396.041" r="6.459"/>
	<circle fill="#231F20" cx="359.922" cy="396.041" r="6.459"/>
	<circle fill="#231F20" cx="395.909" cy="396.041" r="6.459"/>
	<circle fill="#231F20" cx="431.897" cy="396.041" r="6.459"/>
	<circle fill="#231F20" cx="467.886" cy="396.041" r="6.459"/>
	<path fill="#231F20" d="M497.414,396.04c0,3.567,2.893,6.46,6.459,6.46c0.043,0,0.084-0.006,0.127-0.007v-12.905
		c-0.043-0.001-0.084-0.007-0.127-0.007C500.307,389.581,497.414,392.474,497.414,396.04z"/>
	<path fill="#231F20" d="M6.501,432.041c0-3.567-2.891-6.461-6.458-6.461c-0.015,0-0.028,0.002-0.043,0.002v12.916
		c0.015,0,0.028,0.002,0.043,0.002C3.61,438.5,6.501,435.607,6.501,432.041z"/>
	<circle fill="#231F20" cx="36.03" cy="432.04" r="6.46"/>
	<circle fill="#231F20" cx="72.018" cy="432.04" r="6.46"/>
	<circle fill="#231F20" cx="108.006" cy="432.04" r="6.46"/>
	<circle fill="#231F20" cx="143.995" cy="432.04" r="6.46"/>
	<circle fill="#231F20" cx="179.982" cy="432.04" r="6.46"/>
	<circle fill="#231F20" cx="215.97" cy="432.04" r="6.46"/>
	<circle fill="#231F20" cx="251.958" cy="432.04" r="6.46"/>
	<circle fill="#231F20" cx="287.947" cy="432.04" r="6.46"/>
	<circle fill="#231F20" cx="323.935" cy="432.04" r="6.46"/>
	<circle fill="#231F20" cx="359.922" cy="432.04" r="6.46"/>
	<circle fill="#231F20" cx="395.909" cy="432.04" r="6.46"/>
	<circle fill="#231F20" cx="431.897" cy="432.04" r="6.46"/>
	<circle fill="#231F20" cx="467.886" cy="432.04" r="6.46"/>
	<path fill="#231F20" d="M497.414,432.041c0,3.566,2.893,6.459,6.459,6.459c0.043,0,0.084-0.006,0.127-0.007v-12.906
		c-0.043-0.001-0.084-0.007-0.127-0.007C500.307,425.58,497.414,428.474,497.414,432.041z"/>
	<path fill="#231F20" d="M6.501,468.04c0-3.566-2.891-6.459-6.458-6.459c-0.015,0-0.028,0.002-0.043,0.002v12.915
		c0.015,0,0.028,0.002,0.043,0.002C3.61,474.5,6.501,471.607,6.501,468.04z"/>
	<circle fill="#231F20" cx="36.03" cy="468.041" r="6.459"/>
	<circle fill="#231F20" cx="72.018" cy="468.041" r="6.459"/>
	<circle fill="#231F20" cx="108.006" cy="468.041" r="6.459"/>
	<circle fill="#231F20" cx="143.995" cy="468.041" r="6.459"/>
	<circle fill="#231F20" cx="179.982" cy="468.041" r="6.459"/>
	<circle fill="#231F20" cx="215.97" cy="468.041" r="6.459"/>
	<circle fill="#231F20" cx="251.958" cy="468.041" r="6.459"/>
	<circle fill="#231F20" cx="287.947" cy="468.041" r="6.459"/>
	<circle fill="#231F20" cx="323.935" cy="468.041" r="6.459"/>
	<circle fill="#231F20" cx="359.922" cy="468.041" r="6.459"/>
	<circle fill="#231F20" cx="395.909" cy="468.041" r="6.459"/>
	<circle fill="#231F20" cx="431.897" cy="468.041" r="6.459"/>
	<circle fill="#231F20" cx="467.886" cy="468.041" r="6.459"/>
	<path fill="#231F20" d="M497.414,468.04c0,3.567,2.893,6.46,6.459,6.46c0.043,0,0.084-0.006,0.127-0.007v-12.905
		c-0.043-0.001-0.084-0.007-0.127-0.007C500.307,461.581,497.414,464.474,497.414,468.04z"/>
	<path fill="#231F20" d="M0.043,497.581c-0.015,0-0.028,0.002-0.043,0.002V504h6.499C6.477,500.452,3.597,497.581,0.043,497.581z"/>
	<path fill="#231F20" d="M36.03,497.581c-3.553,0-6.435,2.871-6.457,6.419h12.916C42.467,500.452,39.585,497.581,36.03,497.581z"/>
	<path fill="#231F20" d="M72.018,497.581c-3.553,0-6.435,2.871-6.457,6.419h12.916C78.455,500.452,75.572,497.581,72.018,497.581z"
		/>
	<path fill="#231F20" d="M108.006,497.581c-3.553,0-6.435,2.871-6.457,6.419h12.915C114.442,500.452,111.56,497.581,108.006,497.581
		z"/>
	<path fill="#231F20" d="M143.995,497.581c-3.553,0-6.437,2.871-6.458,6.419h12.916C150.43,500.452,147.548,497.581,143.995,497.581
		z"/>
	<path fill="#231F20" d="M179.982,497.581c-3.554,0-6.435,2.871-6.457,6.419h12.915
		C186.418,500.452,183.536,497.581,179.982,497.581z"/>
	<path fill="#231F20" d="M215.97,497.581c-3.554,0-6.435,2.871-6.457,6.419h12.915C222.406,500.452,219.523,497.581,215.97,497.581z
		"/>
	<path fill="#231F20" d="M251.958,497.581c-3.554,0-6.436,2.871-6.458,6.419h12.915
		C258.395,500.452,255.513,497.581,251.958,497.581z"/>
	<path fill="#231F20" d="M287.947,497.581c-3.556,0-6.438,2.871-6.46,6.419h12.916C294.382,500.452,291.501,497.581,287.947,497.581
		z"/>
	<path fill="#231F20" d="M323.935,497.581c-3.555,0-6.435,2.871-6.456,6.419h12.914
		C330.371,500.452,327.486,497.581,323.935,497.581z"/>
	<path fill="#231F20" d="M359.922,497.581c-3.554,0-6.436,2.871-6.457,6.419h12.915
		C366.358,500.452,363.476,497.581,359.922,497.581z"/>
	<path fill="#231F20" d="M395.909,497.581c-3.555,0-6.436,2.871-6.457,6.419h12.915
		C402.346,500.452,399.463,497.581,395.909,497.581z"/>
	<path fill="#231F20" d="M431.897,497.581c-3.554,0-6.435,2.871-6.456,6.419h12.914C438.334,500.452,435.45,497.581,431.897,497.581
		z"/>
	<path fill="#231F20" d="M467.886,497.581c-3.553,0-6.436,2.871-6.457,6.419h12.914
		C474.321,500.452,471.439,497.581,467.886,497.581z"/>
	<path fill="#231F20" d="M497.416,504H504v-6.412c-0.043-0.001-0.084-0.007-0.127-0.007C500.32,497.581,497.438,500.452,497.416,504
		z"/>
</g>
</svg>
